<?xml version="1.0" standalone="no"?><!DOCTYPE svg PUBLIC "-//W3C//DTD SVG 1.1//EN" "http://www.w3.org/Graphics/SVG/1.1/DTD/svg11.dtd"><svg t="1526706948936" class="icon" style="" viewBox="0 0 1024 1024" version="1.1" xmlns="http://www.w3.org/2000/svg" p-id="878" xmlns:xlink="http://www.w3.org/1999/xlink" width="200" height="200"><defs><style type="text/css"></style></defs><path d="M153.298944 362.831872c17.373184 12.575744 31.430656 22.680576 42.084352 30.342144 10.694656 7.65952 20.08064 14.778368 28.243968 21.326848 8.121344 6.566912 16.108544 13.530112 24.011776 20.907008 7.855104 7.379968 17.681408 17.094656 29.464576 29.121536 17.942528 17.501184 26.806272 38.699008 26.543104 63.5648-0.303104 24.882176-6.064128 53.715968-17.287168 86.521856-3.362816 10.937344-6.331392 19.690496-8.861696 26.241024-2.48832 6.565888-5.194752 12.982272-7.988224 19.29216-2.792448 6.288384-6.02624 13.248512-9.693184 20.91008-3.623936 7.642112-8.554496 17.767424-14.713856 30.343168-6.198272 12.571648-13.924352 28.420096-23.181312 47.561728-9.250816 19.141632-20.60288 43.45856-34.095104 72.991744L64.852992 758.965248c25.276416-22.959104 49.113088-45.376512 71.596032-67.252224 8.989696-9.294848 18.246656-18.859008 27.763712-28.701696 9.561088-9.842688 18.550784-19.403776 26.981376-28.70272 8.424448-9.29792 15.976448-18.315264 22.744064-27.066368 6.720512-8.756224 11.784192-16.674816 15.14496-23.793664 7.29088-14.208 9.826304-26.911744 7.599104-38.129664-2.274304-11.200512-6.462464-20.62848-12.66176-28.292096-6.723584-8.749056-15.976448-16.412672-27.762688-22.961152l-93.512704-55.768064L153.298944 362.831872 153.298944 362.831872zM945.000448 343.145472c5.633024 27.89376 9.561088 59.872256 11.788288 95.977472 2.270208 31.147008 3.229696 68.343808 2.967552 111.541248-0.308224 43.175936-3.53792 92.112896-9.693184 146.793472-2.839552 27.348992-9.560064 50.179072-20.212736 68.472832-10.694656 18.331648-23.745536 33.220608-39.15776 44.704768-15.454208 11.47904-32.437248 19.946496-50.993152 25.430016-18.507776 5.4784-37.323776 9.012224-56.40192 10.674176-44.353536 3.81952-94.078976-0.831488-149.085184-13.94688l16.850944-61.51168 65.700864 13.945856c15.716352 1.091584 29.601792 0.543744 41.694208-1.661952 12.049408-2.180096 22.701056-5.584896 31.995904-10.236928 9.255936-4.646912 17.11616-9.838592 23.575552-15.583232 6.463488-5.743616 11.920384-11.89888 16.412672-18.468864 10.130432-14.751744 16.85504-31.6928 20.216832-50.838528L850.659328 380.88704c0-28.98944-7.99232-51.690496-24.011776-68.083712-15.980544-16.391168-38.720512-26.6496-68.190208-30.753792-29.51168-4.103168-65.00352-2.59584-106.564608 4.519936-41.560064 7.092224-87.575552 19.402752-138.128384 36.908032l46.319616 13.120512c-1.661952 6.54848-6.155264 12.986368-13.45024 19.274752-7.332864 6.283264-15.758336 15.432704-25.276416 27.456512l277.08416 0 0 50.860032L640.932864 434.189312l0 100.888576 156.684288 0 0 53.306368-32.001024 0 55.575552 134.504448-87.61856 36.077568-16.807936-57.40544c-9.560064 7.114752-22.349824 15.997952-38.327296 26.650624-16.023552 10.647552-35.405824 20.649984-58.10688 29.948928-22.745088 9.27744-48.589824 17.202176-77.490176 23.77216-28.942336 6.565888-61.336576 9.298944-97.308672 8.20736-19.647488 0.543744-36.189184-1.769472-49.682432-6.965248-13.487104-5.194752-24.706048-12.181504-33.700864-20.911104-8.951808-8.751104-15.980544-18.725888-21.039104-29.948928-5.067776-11.21792-8.690688-22.83008-10.96192-34.85696-5.588992-27.877376-5.588992-59.876352 0-95.954944l11.788288-2.46784 91.808768 0c-0.523264 5.480448-1.52576 11.895808-2.925568 19.298304-1.437696 7.375872-2.532352 14.751744-3.356672 22.131712-0.874496 7.379968-1.13664 14.340096-0.874496 20.911104 0.303104 6.549504 2.137088 12.309504 5.49888 17.221632 2.228224 4.365312 7.860224 7.508992 16.84992 9.432064 8.952832 1.918976 18.507776 3.007488 28.639232 3.272704 10.083328 0.2816 19.908608 0.410624 29.4656 0.410624l21.0432 0 6.724608 0L534.8096 588.383232 355.428352 588.383232l0-53.302272 179.377152 0 0-100.892672-62.294016 0c-9.55904 9.298944-18.245632 18.731008-26.109952 28.290048-7.856128 9.582592-14.88384 18.183168-21.083136 25.841664-7.289856 9.29792-14.010368 18.055168-20.211712 26.238976l-47.145984-40.184832c8.424448-8.754176 16.674816-18.593792 24.838144-29.51168 8.163328-10.93632 16.019456-22.025216 23.574528-33.221632 7.595008-11.21792 14.88384-22.286336 21.912576-33.221632 7.02976-10.935296 13.057024-21.065728 18.118656-30.339072-8.993792 3.273728-17.681408 6.828032-26.10688 10.648576-8.424448 3.81952-17.416192 7.661568-26.980352 11.483136-8.989696 10.934272-18.37568 21.737472-28.20096 32.390144-9.822208 10.673152-20.34688 21.480448-31.606784 32.415744 0 1.091584-4.06016-0.415744-12.178432-4.518912-8.163328-4.103168-17.286144-8.8832-27.373568-14.340096-11.787264-6.02624-25.015296-13.140992-39.595008-21.348352 20.20864-16.935936 38.199296-37.851136 53.9136-62.733312 15.720448-24.885248 29.161472-48.807936 40.425472-71.771136 12.92288-26.78272 24.402944-54.653952 34.532352-83.644416l112.022528 30.338048c-2.271232 6.027264-4.806656 12.032-7.599104 18.03264-2.793472 5.4784-5.894144 11.920384-9.255936 19.296256-3.362816 7.376896-7.29088 14.88384-11.784192 22.547456 56.136704-15.299584 105.82016-25.97376 149.081088-31.978496 43.22304-6.022144 81.246208-8.75008 114.120704-8.206336 32.827392 0.548864 60.900352 3.820544 84.209664 9.842688 23.314432 6.004736 43.0848 13.380608 59.370496 22.136832C910.468096 278.904832 934.3488 307.063808 945.000448 343.145472L945.000448 343.145472 945.000448 343.145472zM640.932864 681.870336c11.266048-4.365312 22.178816-9.01632 32.874496-13.945856 10.651648-4.913152 20.477952-10.913792 29.468672-18.028544l-13.488128-48.393216 42.9568-13.119488-91.812864 0L640.93184 681.870336 640.932864 681.870336 640.932864 681.870336zM220.658688 333.299712c-11.218944 0-21.738496-1.769472-31.563776-5.3248-9.864192-3.559424-18.422784-8.467456-25.71264-14.75584-7.289856-6.28736-13.05088-13.535232-17.24416-21.741568-4.232192-8.206336-6.332416-17.222656-6.332416-27.066368 0-9.842688 2.100224-18.992128 6.332416-27.459584 4.19328-8.46848 9.954304-15.869952 17.24416-22.15424 7.289856-6.28736 15.849472-11.196416 25.71264-14.75584 9.826304-3.559424 20.344832-5.349376 31.563776-5.349376 10.69568 0 20.777984 1.790976 30.343168 5.349376 9.517056 3.559424 17.941504 8.469504 25.232384 14.75584 7.333888 6.284288 13.094912 13.68576 17.288192 22.15424 4.189184 8.467456 6.330368 17.616896 6.330368 27.459584 0 9.843712-2.141184 18.860032-6.330368 27.066368-4.19328 8.206336-9.954304 15.454208-17.288192 21.741568-7.289856 6.289408-15.715328 11.19744-25.232384 14.75584C241.436672 331.533312 231.354368 333.299712 220.658688 333.299712L220.658688 333.299712 220.658688 333.299712zM220.658688 333.299712" p-id="879"></path></svg>